<?xml version="1.0" encoding="UTF-8" standalone="no"?>
<svg
   xmlns:dc="http://purl.org/dc/elements/1.1/"
   xmlns:cc="http://creativecommons.org/ns#"
   xmlns:rdf="http://www.w3.org/1999/02/22-rdf-syntax-ns#"
   xmlns:svg="http://www.w3.org/2000/svg"
   xmlns="http://www.w3.org/2000/svg"
   viewBox="0 0 560 190.66667"
   height="190.66667"
   width="560"
   xml:space="preserve"
   id="svg2"
   version="1.1"><metadata
     id="metadata8"><rdf:RDF><cc:Work
         rdf:about=""><dc:format>image/svg+xml</dc:format><dc:type
           rdf:resource="http://purl.org/dc/dcmitype/StillImage" /></cc:Work></rdf:RDF></metadata><defs
     id="defs6"><clipPath
       id="clipPath96"
       clipPathUnits="userSpaceOnUse"><path
         id="path94"
         d="m 841.129,812.27 c -8.727,-1.79 -17.129,-5.258 -24.43,-10.469 -1.5,-1.071 -2.961,-2.223 -4.371,-3.434 l -5.84,-5.086 -7.168,-6.238 c 0,0 -5.922,-3.242 -13.812,-8.172 -2.887,-1.074 -5.899,-1.781 -8.949,-2.25 52.589,-13.023 141.054,-41.141 46.211,-65.25 -90.59,-23.012 -98.2,-52.836 -12.387,-74.672 42.777,13.25 85.656,31.231 123.558,47.168 24.539,10.313 46.211,19.414 64.95,26.074 L 897.34,798.367 c -11.719,10.203 -27.082,15.27 -42.453,15.27 -4.617,0 -9.239,-0.449 -13.758,-1.367" /></clipPath><clipPath
       id="clipPath102"
       clipPathUnits="userSpaceOnUse"><path
         id="path100"
         d="M 724.57,813.637 H 998.891 V 636.699 H 724.57 Z" /></clipPath><linearGradient
       id="linearGradient108"
       spreadMethod="pad"
       gradientTransform="matrix(445.925,0,0,445.925,743.794,725.244)"
       gradientUnits="userSpaceOnUse"
       y2="0"
       x2="1"
       y1="0"
       x1="0"><stop
         id="stop104"
         offset="0"
         style="stop-opacity:1;stop-color:#7fcc2a" /><stop
         id="stop106"
         offset="1"
         style="stop-opacity:1;stop-color:#3f7b4d" /></linearGradient><linearGradient
       id="linearGradient116"
       spreadMethod="pad"
       gradientTransform="matrix(499.324,0,0,499.324,571.968,725.215)"
       gradientUnits="userSpaceOnUse"
       y2="0"
       x2="1"
       y1="0"
       x1="0"><stop
         id="stop112"
         offset="0"
         style="stop-opacity:1;stop-color:#7fcc2a" /><stop
         id="stop114"
         offset="1"
         style="stop-opacity:1;stop-color:#3f7b4d" /></linearGradient></defs><g
     transform="matrix(1.3333333,0,0,-1.3333333,0,190.66667)"
     id="g10"><g
       transform="scale(0.1)"
       id="g12"><path
         id="path82"
         style="fill:#51ade5;fill-opacity:1;fill-rule:evenodd;stroke:none"
         d="m 504.402,793.137 c 0,-8.332 -6.734,-15.078 -15.066,-15.078 -8.313,0 -15.063,6.746 -15.063,15.078 0,8.308 15.063,38.25 15.063,38.25 0,0 15.066,-29.942 15.066,-38.25" /><path
         id="path84"
         style="fill:#51ade5;fill-opacity:1;fill-rule:evenodd;stroke:none"
         d="m 566.488,863.629 c 0,-12.441 -10.078,-22.52 -22.508,-22.52 -12.441,0 -22.5,10.079 -22.5,22.52 0,12.441 22.5,45.707 22.5,45.707 0,0 22.508,-33.266 22.508,-45.707" /><path
         id="path86"
         style="fill:#51ade5;fill-opacity:1;fill-rule:evenodd;stroke:none"
         d="m 533.766,961.598 c 0,-17.387 -14.114,-31.493 -31.5,-31.493 -17.411,0 -31.5,14.106 -31.5,31.493 0,17.402 31.5,60.512 31.5,60.512 0,0 31.5,-43.11 31.5,-60.512" /><path
         id="path88"
         style="fill:#3f7b4d;fill-opacity:1;fill-rule:nonzero;stroke:none"
         d="m 671.871,620.266 c 9.84,-1.868 20.602,-2.817 31.957,-2.817 33.301,0 69.895,7.895 106.555,19.25 -85.813,21.848 -78.203,51.66 12.387,74.672 94.843,24.102 6.39,52.223 -46.211,65.254 -4.411,-0.672 -8.907,-0.77 -13.411,-0.082 -7.988,1.238 -16.218,1.059 -24.16,-0.535 -10.535,-2.164 -20.57,-6.754 -28.797,-13.914 l -53.75,-46.801 -6.363,-5.52 -56.824,-49.492 c 15.84,-18.711 40.656,-32.886 78.617,-40.015" /><g
         id="g90"><g
           clip-path="url(#clipPath96)"
           id="g92"><g
             clip-path="url(#clipPath102)"
             id="g98"><path
               id="path110"
               style="fill:url(#linearGradient108);fill-opacity:1;fill-rule:nonzero;stroke:none"
               d="m 809,636 v 1 h -4 v 1 h -3 v 1 h -4 v 1 h -3 v 1 h -3 v 1 h -3 v 1 h -3 v 1 h -3 v 1 h -3 v 1 h -2 v 1 h -2 v 1 h -3 v 1 h -2 v 1 h -2 v 1 h -2 v 1 h -2 v 1 h -1 v 1 h -2 v 1 h -1 v 1 h -2 v 1 h -1 v 1 h -1 v 1 h -1 v 1 h -1 v 1 h -1 v 1 h -1 v 1 h -1 v 2 h -1 v 2 h -1 v 9 h 1 v 2 h 1 v 2 h 1 v 1 h 1 v 1 h 1 v 1 h 1 v 1 h 1 v 1 h 1 v 1 h 1 v 1 h 1 v 1 h 2 v 1 h 1 v 1 h 2 v 1 h 2 v 1 h 1 v 1 h 2 v 1 h 2 v 1 h 2 v 1 h 2 v 1 h 2 v 1 h 3 v 1 h 2 v 1 h 3 v 1 h 2 v 1 h 3 v 1 h 3 v 1 h 3 v 1 h 3 v 1 h 3 v 1 h 3 v 1 h 4 v 1 h 4 v 1 h 3 v 1 h 4 v 1 h 3 v 1 h 4 v 1 h 3 v 1 h 4 v 1 h 3 v 1 h 3 v 1 h 2 v 1 h 3 v 1 h 2 v 1 h 2 v 1 h 2 v 1 h 2 v 1 h 2 v 1 h 1 v 1 h 2 v 1 h 1 v 1 h 1 v 1 h 1 v 2 h 1 v 2 h 1 v 4 h -1 v 3 h -1 v 1 h -1 v 1 h -1 v 2 h -2 v 1 h -1 v 1 h -1 v 1 h -1 v 1 h -2 v 1 h -2 v 1 h -1 v 1 h -2 v 1 h -2 v 1 h -2 v 1 h -2 v 1 h -2 v 1 h -2 v 1 h -3 v 1 h -2 v 1 h -2 v 1 h -3 v 1 h -3 v 1 h -3 v 1 h -2 v 1 h -3 v 1 h -3 v 1 h -3 v 1 h -4 v 1 h -3 v 1 h -3 v 1 h -4 v 1 h -3 v 1 h -4 v 1 h -4 v 1 h -4 v 1 h -3 v 1 h -3 v 1 h 2 v 1 h 4 v 1 h 3 v 1 h 2 v 1 h 1 v 1 h 2 v 1 h 2 v 1 h 2 v 1 h 1 v 1 h 2 v 1 h 2 v 1 h 1 v 1 h 1 v 1 h 1 v 1 h 1 v 1 h 2 v 1 h 1 v 1 h 1 v 1 h 1 v 1 h 1 v 1 h 1 v 1 h 1 v 1 h 2 v 1 h 1 v 1 h 1 v 1 h 2 v 1 h 1 v 1 h 2 v 1 h 2 v 1 h 2 v 1 h 2 v 1 h 1 v 1 h 3 v 1 h 3 v 1 h 4 v 1 h 3 v 1 h 8 v 1 h 15 v -1 h 7 v -1 h 3 v -1 h 4 v -1 h 3 v -1 h 2 v -1 h 2 v -1 h 2 v -1 h 2 v -1 h 2 v -1 h 1 v -1 h 2 v -1 h 1 v -1 h 2 v -1 h 1 v -1 h 1 v -1 h 1 v -1 h 2 v -1 h 1 v -1 h 1 v -1 h 1 v -1 h 1 v -1 h 1 v -1 h 1 v -1 h 2 v -1 h 1 v -1 h 1 v -1 h 1 v -1 h 1 v -1 h 1 v -1 h 1 v -1 h 2 v -1 h 1 v -1 h 1 v -1 h 1 v -1 h 1 v -1 h 1 v -1 h 2 v -1 h 1 v -1 h 1 v -1 h 1 v -1 h 1 v -1 h 1 v -1 h 1 v -1 h 2 v -1 h 1 v -1 h 1 v -1 h 1 v -1 h 1 v -1 h 1 v -1 h 1 v -1 h 2 v -1 h 1 v -1 h 1 v -1 h 1 v -1 h 1 v -1 h 1 v -1 h 1 v -1 h 2 v -1 h 1 v -1 h 1 v -1 h 1 v -1 h 1 v -1 h 1 v -1 h 2 v -1 h 1 v -1 h 1 v -1 h 1 v -1 h 1 v -1 h 1 v -1 h 1 v -1 h 2 v -1 h 1 v -1 h 1 v -1 h 1 v -1 h 1 v -1 h 1 v -1 h 1 v -1 h 2 v -1 h 1 v -1 h 1 v -1 h 1 v -1 h 1 v -1 h 1 v -1 h 2 v -1 h 1 v -1 h 1 v -1 h 1 v -1 h 1 v -1 h 1 v -1 h 1 v -1 h 2 v -1 h 1 v -1 h 1 v -1 h 1 v -1 h 1 v -1 h 1 v -1 h 1 v -1 h 2 v -1 h 1 v -1 h 1 v -1 h 1 v -1 h 1 v -1 h 1 v -2 h -2 v -1 h -3 v -1 h -3 v -1 h -2 v -1 h -3 v -1 h -2 v -1 h -3 v -1 h -3 v -1 h -2 v -1 h -3 v -1 h -2 v -1 h -3 v -1 h -2 v -1 h -2 v -1 h -3 v -1 h -2 v -1 h -3 v -1 h -2 v -1 h -3 v -1 h -2 v -1 h -2 v -1 h -3 v -1 h -2 v -1 h -2 v -1 h -3 v -1 h -2 v -1 h -3 v -1 h -2 v -1 h -2 v -1 h -3 v -1 h -2 v -1 h -3 v -1 h -2 v -1 h -2 v -1 h -3 v -1 h -2 v -1 h -3 v -1 h -2 v -1 h -2 v -1 h -3 v -1 h -2 v -1 h -3 v -1 h -2 v -1 h -3 v -1 h -2 v -1 h -3 v -1 h -2 v -1 h -3 v -1 h -2 v -1 h -3 v -1 h -2 v -1 h -3 v -1 h -3 v -1 h -2 v -1 h -3 v -1 h -3 v -1 h -2 v -1 h -3 v -1 h -3 v -1 h -2 v -1 h -3 v -1 h -3 v -1 h -2 v -1 h -3 v -1 h -3 v -1 h -3 v -1 h -3 v -1 h -3 v -1 h -3 v -1 h -3 v -1 h -3 v -1 h -3 v -1 h -3 v -1" /><path
               id="path118"
               style="fill:url(#linearGradient116);fill-opacity:1;fill-rule:nonzero;stroke:none"
               d="m 809,636 v 1 h -4 v 1 h -3 v 1 h -4 v 1 h -3 v 1 h -3 v 1 h -3 v 1 h -3 v 1 h -3 v 1 h -3 v 1 h -2 v 1 h -2 v 1 h -3 v 1 h -2 v 1 h -2 v 1 h -2 v 1 h -2 v 1 h -1 v 1 h -2 v 1 h -1 v 1 h -2 v 1 h -1 v 1 h -1 v 1 h -1 v 1 h -1 v 1 h -1 v 1 h -1 v 1 h -1 v 2 h -1 v 2 h -1 v 9 h 1 v 2 h 1 v 2 h 1 v 1 h 1 v 1 h 1 v 1 h 1 v 1 h 1 v 1 h 1 v 1 h 1 v 1 h 1 v 1 h 2 v 1 h 1 v 1 h 2 v 1 h 2 v 1 h 1 v 1 h 2 v 1 h 2 v 1 h 2 v 1 h 2 v 1 h 2 v 1 h 3 v 1 h 2 v 1 h 3 v 1 h 2 v 1 h 3 v 1 h 3 v 1 h 3 v 1 h 3 v 1 h 3 v 1 h 3 v 1 h 4 v 1 h 4 v 1 h 3 v 1 h 4 v 1 h 3 v 1 h 4 v 1 h 3 v 1 h 4 v 1 h 3 v 1 h 3 v 1 h 2 v 1 h 3 v 1 h 2 v 1 h 2 v 1 h 2 v 1 h 2 v 1 h 2 v 1 h 1 v 1 h 2 v 1 h 1 v 1 h 1 v 1 h 1 v 2 h 1 v 2 h 1 v 4 h -1 v 3 h -1 v 1 h -1 v 1 h -1 v 2 h -2 v 1 h -1 v 1 h -1 v 1 h -1 v 1 h -2 v 1 h -2 v 1 h -1 v 1 h -2 v 1 h -2 v 1 h -2 v 1 h -2 v 1 h -2 v 1 h -2 v 1 h -3 v 1 h -2 v 1 h -2 v 1 h -3 v 1 h -3 v 1 h -3 v 1 h -2 v 1 h -3 v 1 h -3 v 1 h -3 v 1 h -4 v 1 h -3 v 1 h -3 v 1 h -4 v 1 h -3 v 1 h -4 v 1 h -4 v 1 h -4 v 1 h -3 v 1 h -3 v 1 h 2 v 1 h 4 v 1 h 3 v 1 h 2 v 1 h 1 v 1 h 2 v 1 h 2 v 1 h 2 v 1 h 1 v 1 h 2 v 1 h 2 v 1 h 1 v 1 h 1 v 1 h 1 v 1 h 1 v 1 h 2 v 1 h 1 v 1 h 1 v 1 h 1 v 1 h 1 v 1 h 1 v 1 h 1 v 1 h 2 v 1 h 1 v 1 h 1 v 1 h 2 v 1 h 1 v 1 h 2 v 1 h 2 v 1 h 2 v 1 h 2 v 1 h 1 v 1 h 3 v 1 h 3 v 1 h 4 v 1 h 3 v 1 h 8 v 1 h 15 v -1 h 7 v -1 h 3 v -1 h 4 v -1 h 3 v -1 h 2 v -1 h 2 v -1 h 2 v -1 h 2 v -1 h 2 v -1 h 1 v -1 h 2 v -1 h 1 v -1 h 2 v -1 h 1 v -1 h 1 v -1 h 1 v -1 h 2 v -1 h 1 v -1 h 1 v -1 h 1 v -1 h 1 v -1 h 1 v -1 h 1 v -1 h 2 v -1 h 1 v -1 h 1 v -1 h 1 v -1 h 1 v -1 h 1 v -1 h 1 v -1 h 2 v -1 h 1 v -1 h 1 v -1 h 1 v -1 h 1 v -1 h 1 v -1 h 2 v -1 h 1 v -1 h 1 v -1 h 1 v -1 h 1 v -1 h 1 v -1 h 1 v -1 h 2 v -1 h 1 v -1 h 1 v -1 h 1 v -1 h 1 v -1 h 1 v -1 h 1 v -1 h 2 v -1 h 1 v -1 h 1 v -1 h 1 v -1 h 1 v -1 h 1 v -1 h 1 v -1 h 2 v -1 h 1 v -1 h 1 v -1 h 1 v -1 h 1 v -1 h 1 v -1 h 2 v -1 h 1 v -1 h 1 v -1 h 1 v -1 h 1 v -1 h 1 v -1 h 1 v -1 h 2 v -1 h 1 v -1 h 1 v -1 h 1 v -1 h 1 v -1 h 1 v -1 h 1 v -1 h 2 v -1 h 1 v -1 h 1 v -1 h 1 v -1 h 1 v -1 h 1 v -1 h 2 v -1 h 1 v -1 h 1 v -1 h 1 v -1 h 1 v -1 h 1 v -1 h 1 v -1 h 2 v -1 h 1 v -1 h 1 v -1 h 1 v -1 h 1 v -1 h 1 v -1 h 1 v -1 h 2 v -1 h 1 v -1 h 1 v -1 h 1 v -1 h 1 v -1 h 1 v -2 h -2 v -1 h -3 v -1 h -3 v -1 h -2 v -1 h -3 v -1 h -2 v -1 h -3 v -1 h -3 v -1 h -2 v -1 h -3 v -1 h -2 v -1 h -3 v -1 h -2 v -1 h -2 v -1 h -3 v -1 h -2 v -1 h -3 v -1 h -2 v -1 h -3 v -1 h -2 v -1 h -2 v -1 h -3 v -1 h -2 v -1 h -2 v -1 h -3 v -1 h -2 v -1 h -3 v -1 h -2 v -1 h -2 v -1 h -3 v -1 h -2 v -1 h -3 v -1 h -2 v -1 h -2 v -1 h -3 v -1 h -2 v -1 h -3 v -1 h -2 v -1 h -2 v -1 h -3 v -1 h -2 v -1 h -3 v -1 h -2 v -1 h -3 v -1 h -2 v -1 h -3 v -1 h -2 v -1 h -3 v -1 h -2 v -1 h -3 v -1 h -2 v -1 h -3 v -1 h -3 v -1 h -2 v -1 h -3 v -1 h -3 v -1 h -2 v -1 h -3 v -1 h -3 v -1 h -2 v -1 h -3 v -1 h -3 v -1 h -2 v -1 h -3 v -1 h -3 v -1 h -3 v -1 h -3 v -1 h -3 v -1 h -3 v -1 h -3 v -1 h -3 v -1 h -3 v -1 h -3 v -1" /></g></g></g><path
         id="path120"
         style="fill:#3f7b4d;fill-opacity:1;fill-rule:nonzero;stroke:none"
         d="m 1294.17,699.578 c -85.15,48.735 -169.92,39.012 -281.94,2.649 -79.917,-25.95 -235.234,-113.594 -342.503,-93.399 -123.461,23.223 -116.543,122 -111.383,173.813 -31.418,-95.414 1.453,-172.414 100.051,-206.848 33.988,-11.855 70.761,-14.008 108.347,-10.52 35.504,12.2 70.492,26.875 102.024,40.137 28.89,12.156 53.851,22.637 74.703,29.414 66.491,21.582 115.921,31.199 160.281,31.199 43.82,0 83.87,-9.929 122.14,-30.085 10.82,-5.11 21.66,-11.434 32.56,-19.114 14.94,-9.746 28.84,-20.445 39.1,-32.293 16.35,-11.023 38.79,-9.804 53.82,4.317 49.46,46.679 -20.03,89.465 -57.2,110.73" /><path
         id="path122"
         style="fill:#51ade5;fill-opacity:1;fill-rule:evenodd;stroke:none"
         d="m 1229,621.121 c -85.15,48.734 -169.92,39.016 -281.949,2.641 C 867.141,597.813 711.809,510.168 604.543,530.383 481.09,553.594 487.996,652.371 493.168,704.18 c -31.43,-95.41 1.449,-172.41 100.051,-206.844 30.941,-10.805 64.179,-13.535 98.25,-11.313 36.301,12.344 72.14,27.383 104.371,40.93 28.89,12.141 53.848,22.637 74.687,29.402 66.504,21.594 115.942,31.223 160.303,31.223 33.45,0 64.69,-5.848 94.64,-17.519 33.21,-8.196 65.89,-25.965 99.64,-57.84 16.29,-17.278 43.68,-18.188 61.07,-1.821 49.47,46.672 -20.01,89.446 -57.18,110.723" /><path
         id="path124"
         style="fill:#f89b1d;fill-opacity:1;fill-rule:evenodd;stroke:none"
         d="m 1152.18,433.75 c -95.65,90.359 -182.742,67.766 -297.461,33.328 -100.602,-30.23 -230.442,-84.488 -334.422,-48.199 -98.598,34.434 -131.481,111.434 -100.059,206.844 -5.16,-51.805 -12.07,-150.594 111.367,-173.809 107.282,-20.195 262.614,67.441 342.512,93.391 112.031,36.367 196.813,46.082 281.953,-2.649 37.18,-21.269 106.65,-64.043 57.18,-110.73 -17.38,-16.356 -44.78,-15.446 -61.07,1.824" /></g></g></svg>