<?xml version="1.0" encoding="UTF-8" standalone="no"?>
<svg
   xmlns:dc="http://purl.org/dc/elements/1.1/"
   xmlns:cc="http://creativecommons.org/ns#"
   xmlns:rdf="http://www.w3.org/1999/02/22-rdf-syntax-ns#"
   xmlns:svg="http://www.w3.org/2000/svg"
   xmlns="http://www.w3.org/2000/svg"
   viewBox="0 0 560 190.66667"
   height="190.66667"
   width="560"
   xml:space="preserve"
   id="svg2"
   version="1.1"><metadata
     id="metadata8"><rdf:RDF><cc:Work
         rdf:about=""><dc:format>image/svg+xml</dc:format><dc:type
           rdf:resource="http://purl.org/dc/dcmitype/StillImage" /></cc:Work></rdf:RDF></metadata><defs
     id="defs6"><clipPath
       id="clipPath96"
       clipPathUnits="userSpaceOnUse"><path
         id="path94"
         d="m 841.129,812.27 c -8.727,-1.79 -17.129,-5.258 -24.43,-10.469 -1.5,-1.071 -2.961,-2.223 -4.371,-3.434 l -5.84,-5.086 -7.168,-6.238 c 0,0 -5.922,-3.242 -13.812,-8.172 -2.887,-1.074 -5.899,-1.781 -8.949,-2.25 52.589,-13.023 141.054,-41.141 46.211,-65.25 -90.59,-23.012 -98.2,-52.836 -12.387,-74.672 42.777,13.25 85.656,31.231 123.558,47.168 24.539,10.313 46.211,19.414 64.95,26.074 L 897.34,798.367 c -11.719,10.203 -27.082,15.27 -42.453,15.27 -4.617,0 -9.239,-0.449 -13.758,-1.367" /></clipPath><clipPath
       id="clipPath102"
       clipPathUnits="userSpaceOnUse"><path
         id="path100"
         d="M 724.57,813.637 H 998.891 V 636.699 H 724.57 Z" /></clipPath><linearGradient
       id="linearGradient108"
       spreadMethod="pad"
       gradientTransform="matrix(445.925,0,0,445.925,743.794,725.244)"
       gradientUnits="userSpaceOnUse"
       y2="0"
       x2="1"
       y1="0"
       x1="0"><stop
         id="stop104"
         offset="0"
         style="stop-opacity:1;stop-color:#7fcc2a" /><stop
         id="stop106"
         offset="1"
         style="stop-opacity:1;stop-color:#3f7b4d" /></linearGradient><linearGradient
       id="linearGradient116"
       spreadMethod="pad"
       gradientTransform="matrix(499.324,0,0,499.324,571.968,725.215)"
       gradientUnits="userSpaceOnUse"
       y2="0"
       x2="1"
       y1="0"
       x1="0"><stop
         id="stop112"
         offset="0"
         style="stop-opacity:1;stop-color:#7fcc2a" /><stop
         id="stop114"
         offset="1"
         style="stop-opacity:1;stop-color:#3f7b4d" /></linearGradient></defs><g
     transform="matrix(1.3333333,0,0,-1.3333333,0,190.66667)"
     id="g10"><g
       transform="scale(0.1)"
       id="g12"><path
         id="path14"
         style="fill:#51ade5;fill-opacity:1;fill-rule:nonzero;stroke:none"
         d="m 1010.52,776.949 c 8.69,0 16.77,1.211 24.25,3.61 7.48,2.41 14.06,5.859 19.73,10.308 5.67,4.461 10.14,9.774 13.39,15.91 3.26,6.145 4.89,12.95 4.89,20.411 v 17.359 c -7.01,1.922 -14.96,3.719 -23.89,5.41 -8.93,1.691 -19.19,2.543 -30.77,2.543 -17.38,0 -30.839,-3.453 -40.362,-10.312 -9.539,-6.872 -14.313,-15.973 -14.313,-27.29 v -0.726 c 0,-5.774 1.282,-11.012 3.801,-15.727 2.543,-4.683 5.981,-8.597 10.332,-11.726 4.34,-3.141 9.34,-5.543 15.02,-7.25 5.668,-1.68 11.632,-2.52 17.922,-2.52 m -5.66,-22.89 c -8.712,0 -17.309,1.218 -25.801,3.64 -8.461,2.406 -15.973,6.117 -22.5,11.078 -6.539,4.961 -11.801,11.071 -15.801,18.34 -3.988,7.274 -5.992,15.738 -5.992,25.434 v 0.726 c 0,10.161 1.933,19.063 5.808,26.68 3.864,7.641 9.371,13.992 16.528,19.07 7.136,5.078 15.617,8.953 25.425,11.633 9.801,2.645 20.633,3.988 32.513,3.988 12.1,0 22.57,-0.73 31.41,-2.168 8.84,-1.449 17.48,-3.394 25.96,-5.808 v 5.766 c 0,16.589 -4.84,29.16 -14.52,37.699 -9.69,8.531 -23.37,12.824 -41.04,12.824 -11.14,0 -21.252,-1.223 -30.33,-3.645 -9.082,-2.418 -17.981,-5.687 -26.692,-9.808 l -8.359,23.019 c 10.41,4.911 20.937,8.84 31.59,11.789 10.656,2.95 22.891,4.434 36.691,4.434 26.63,0 46.85,-6.914 60.65,-20.715 13.08,-13.07 19.62,-31.476 19.62,-55.207 V 758.066 h -27.61 v 27.973 c -6.53,-8.488 -15.31,-15.934 -26.33,-22.344 -11.02,-6.414 -24.75,-9.636 -41.22,-9.636" /><path
         id="path16"
         style="fill:#51ade5;fill-opacity:1;fill-rule:nonzero;stroke:none"
         d="m 1144.69,1023.19 h 27.96 V 840.145 l 101.33,105.695 h 34.87 l -78.81,-80.641 81.35,-107.133 h -33.4 l -67.2,87.532 -38.14,-38.496 v -49.036 h -27.96 v 265.124" /><path
         id="path18"
         style="fill:#51ade5;fill-opacity:1;fill-rule:nonzero;stroke:none"
         d="m 1448.51,882.633 c 9.47,0 18.2,1.23 26.21,3.652 8.02,2.406 14.94,5.86 20.76,10.336 5.82,4.484 10.37,9.922 13.65,16.352 3.28,6.406 4.92,13.73 4.92,21.968 v 0.735 c 0,15.726 -5.71,28.015 -17.11,36.867 -11.41,8.828 -27.43,13.238 -48.06,13.238 h -78.66 V 882.633 Z M 1341.53,1012.3 h 109.32 c 15.74,0 29.72,-2.25 41.95,-6.73 12.22,-4.46 22.34,-10.695 30.33,-18.691 6.29,-6.309 11.13,-13.688 14.52,-22.156 3.4,-8.473 5.09,-17.789 5.09,-27.981 v -0.722 c 0,-10.637 -1.69,-20.145 -5.09,-28.5 -3.39,-8.36 -8.17,-15.629 -14.34,-21.79 -6.18,-6.179 -13.5,-11.257 -21.97,-15.257 -8.48,-4.004 -17.67,-6.84 -27.61,-8.532 l 78.09,-103.878 h -35.22 l -73.74,98.789 h -72.64 v -98.789 h -28.69 V 1012.3" /><path
         id="path20"
         style="fill:#51ade5;fill-opacity:1;fill-rule:nonzero;stroke:none"
         d="m 1587.41,945.828 h 27.97 V 758.063 h -27.97 z m -1.81,71.922 h 31.97 v -30.871 h -31.97 v 30.871" /><path
         id="path22"
         style="fill:#51ade5;fill-opacity:1;fill-rule:nonzero;stroke:none"
         d="m 1749.76,779.133 c 8.72,0 17.12,1.734 25.24,5.246 8.12,3.519 15.38,8.492 21.8,14.914 6.41,6.41 11.5,14.02 15.25,22.871 3.75,8.836 5.63,18.703 5.63,29.609 v 0.715 c 0,10.891 -1.88,20.774 -5.63,29.602 -3.75,8.844 -8.84,16.41 -15.25,22.711 -6.42,6.277 -13.68,11.191 -21.8,14.711 -8.12,3.511 -16.52,5.258 -25.24,5.258 -9.2,0 -17.79,-1.629 -25.79,-4.895 -7.98,-3.273 -14.96,-7.996 -20.88,-14.172 -5.94,-6.183 -10.65,-13.738 -14.16,-22.699 -3.51,-8.961 -5.27,-19.133 -5.27,-30.516 v -0.715 c 0,-11.144 1.76,-21.191 5.27,-30.164 3.51,-8.937 8.3,-16.57 14.35,-22.871 6.05,-6.297 13.07,-11.125 21.06,-14.539 7.98,-3.379 16.46,-5.066 25.42,-5.066 m -5.08,-25.07 c -11.38,0 -22.4,2.187 -33.05,6.539 -10.66,4.359 -20.22,10.73 -28.7,19.062 -8.47,8.359 -15.25,18.539 -20.34,30.516 -5.09,11.984 -7.62,25.734 -7.62,41.23 v 0.707 c 0,15.266 2.53,28.934 7.62,41.051 5.09,12.113 11.87,22.344 20.34,30.703 8.48,8.34 18.04,14.754 28.7,19.25 10.65,4.473 21.67,6.707 33.05,6.707 8.72,0 16.7,-1.09 23.97,-3.265 7.27,-2.192 13.81,-5.094 19.62,-8.711 5.8,-3.641 11.07,-7.879 15.8,-12.719 4.7,-4.852 8.88,-9.922 12.52,-15.25 v 113.307 h 27.97 V 758.07 h -27.97 v 37.758 c -3.88,-5.555 -8.17,-10.887 -12.89,-15.98 -4.73,-5.078 -9.99,-9.575 -15.81,-13.426 -5.81,-3.895 -12.29,-6.902 -19.42,-9.082 -7.15,-2.18 -15.07,-3.277 -23.79,-3.277" /><path
         id="path24"
         style="fill:#51ade5;fill-opacity:1;fill-rule:nonzero;stroke:none"
         d="m 1975.3,797.285 c 8.96,0 17.55,1.508 25.79,4.551 8.23,3.019 15.56,7.379 21.97,13.07 6.42,5.68 11.56,12.399 15.44,20.157 3.87,7.753 5.81,16.355 5.81,25.792 v 0.723 c 0,9.676 -1.94,18.399 -5.81,26.149 -3.88,7.738 -9.02,14.398 -15.44,19.968 -6.41,5.571 -13.74,9.868 -21.97,12.891 -8.24,3.027 -16.83,4.543 -25.79,4.543 -8.96,0 -17.38,-1.516 -25.24,-4.543 -7.87,-3.023 -14.77,-7.25 -20.7,-12.699 -5.94,-5.449 -10.6,-12.063 -13.99,-19.789 -3.39,-7.75 -5.08,-16.481 -5.08,-26.157 v -0.726 c 0,-9.453 1.76,-18.11 5.27,-25.973 3.51,-7.871 8.22,-14.597 14.17,-20.168 5.92,-5.558 12.82,-9.937 20.69,-13.058 7.87,-3.161 16.17,-4.731 24.88,-4.731 m 0.37,-98.055 c -15.74,0 -30.77,2.176 -45.03,6.536 -14.3,4.363 -27.73,10.89 -40.33,19.609 l 12.71,21.777 c 10.9,-7.738 22.28,-13.668 34.15,-17.789 11.86,-4.109 24.57,-6.172 38.13,-6.172 20.83,0 37.41,5.633 49.77,16.891 12.34,11.262 18.51,27.902 18.51,49.941 v 22.161 c -8.23,-10.899 -18.28,-20.219 -30.14,-27.981 -11.87,-7.75 -26.4,-11.621 -43.59,-11.621 -11.38,0 -22.33,2.063 -32.87,6.172 -10.53,4.133 -19.91,10 -28.14,17.633 -8.23,7.605 -14.84,16.828 -19.8,27.59 -4.97,10.781 -7.44,22.957 -7.44,36.496 v 0.742 c 0,13.801 2.47,26.14 7.44,37.051 4.96,10.879 11.57,20.136 19.8,27.769 8.23,7.633 17.68,13.492 28.33,17.641 10.65,4.097 21.54,6.148 32.68,6.148 8.72,0 16.76,-1.031 24.16,-3.082 7.38,-2.054 14.03,-4.789 19.97,-8.179 5.93,-3.375 11.32,-7.387 16.16,-11.977 4.84,-4.613 9.2,-9.453 13.08,-14.52 v 33.77 h 27.96 V 790.758 c 0,-14.531 -2.05,-27.313 -6.17,-38.32 -4.12,-11.02 -10.04,-20.403 -17.8,-28.141 -8.47,-8.481 -18.76,-14.781 -30.87,-18.902 -12.11,-4.118 -25.66,-6.165 -40.67,-6.165" /><path
         id="path26"
         style="fill:#51ade5;fill-opacity:1;fill-rule:nonzero;stroke:none"
         d="m 2256.76,863.383 c -0.72,8.433 -2.53,16.441 -5.44,24.027 -2.9,7.567 -6.84,14.254 -11.81,20.035 -4.94,5.778 -11,10.36 -18.15,13.707 -7.14,3.395 -15.32,5.075 -24.51,5.075 -7.99,0 -15.51,-1.575 -22.52,-4.696 -7.03,-3.129 -13.2,-7.515 -18.53,-13.187 -5.32,-5.649 -9.74,-12.336 -13.25,-20.039 -3.52,-7.707 -5.76,-16.02 -6.72,-24.922 z m -120.93,-22.879 c 0.96,-9.93 3.39,-18.77 7.27,-26.52 3.85,-7.738 8.82,-14.273 14.88,-19.597 6.04,-5.344 12.83,-9.391 20.34,-12.184 7.5,-2.769 15.38,-4.172 23.6,-4.172 13.08,0 24.28,2.434 33.6,7.274 9.32,4.828 17.85,11.25 25.61,19.25 l 17.43,-15.617 c -9.44,-10.653 -20.22,-19.18 -32.32,-25.602 -12.11,-6.41 -27.12,-9.629 -45.04,-9.629 -12.83,0 -24.94,2.367 -36.32,7.078 -11.37,4.727 -21.31,11.387 -29.78,19.977 -8.48,8.601 -15.2,18.949 -20.16,31.054 -4.96,12.102 -7.44,25.418 -7.44,39.946 0,13.551 2.24,26.343 6.71,38.332 4.47,11.972 10.72,22.383 18.71,31.23 7.99,8.832 17.49,15.801 28.53,20.879 10.99,5.094 23.04,7.633 36.11,7.633 13.81,0 26.16,-2.602 37.06,-7.809 10.89,-5.211 20.09,-12.304 27.61,-21.265 7.49,-8.946 13.18,-19.469 17.06,-31.586 3.87,-12.102 5.81,-25.059 5.81,-38.863 v -4.18 c 0,-1.567 -0.13,-3.438 -0.36,-5.629 h -148.91" /><path
         id="path28"
         style="fill:#51ade5;fill-opacity:1;fill-rule:nonzero;stroke:none"
         d="m 2381.72,754.426 c -13.58,0 -27.25,2.5 -41.04,7.449 -13.81,4.961 -26.04,11.688 -36.7,20.16 l 14.16,19.977 c 10.17,-7.758 20.77,-13.688 31.78,-17.809 11.04,-4.109 22.1,-6.172 33.23,-6.172 11.39,0 20.71,2.653 27.98,8.004 7.26,5.317 10.89,12.578 10.89,21.785 v 0.743 c 0,4.582 -1.27,8.57 -3.81,11.968 -2.53,3.387 -5.99,6.364 -10.35,8.903 -4.36,2.539 -9.37,4.781 -15.07,6.718 -5.7,1.922 -11.57,3.743 -17.62,5.442 -7.26,2.179 -14.58,4.539 -21.97,7.078 -7.39,2.555 -14.04,5.754 -19.98,9.644 -5.93,3.848 -10.77,8.711 -14.53,14.504 -3.76,5.825 -5.61,13.082 -5.61,21.813 v 0.711 c 0,8 1.56,15.32 4.69,21.98 3.16,6.66 7.59,12.348 13.27,17.071 5.69,4.73 12.47,8.347 20.34,10.898 7.86,2.539 16.4,3.809 25.61,3.809 11.61,0 23.36,-1.868 35.23,-5.618 11.85,-3.773 22.63,-8.793 32.32,-15.089 l -12.71,-21.059 c -8.71,5.578 -17.87,9.988 -27.43,13.25 -9.56,3.285 -18.94,4.906 -28.14,4.906 -11.14,0 -19.97,-2.597 -26.51,-7.797 -6.55,-5.218 -9.82,-11.687 -9.82,-19.433 v -0.727 c 0,-4.359 1.35,-8.172 4.01,-11.441 2.65,-3.281 6.23,-6.117 10.72,-8.539 4.47,-2.434 9.62,-4.61 15.43,-6.532 5.81,-1.941 11.85,-3.89 18.16,-5.82 7.26,-2.18 14.46,-4.59 21.61,-7.258 7.13,-2.672 13.62,-6.05 19.43,-10.172 5.81,-4.128 10.47,-9.078 13.98,-14.878 3.51,-5.821 5.27,-12.973 5.27,-21.442 v -0.73 c 0,-8.95 -1.76,-16.891 -5.27,-23.789 -3.51,-6.899 -8.23,-12.77 -14.16,-17.618 -5.93,-4.843 -12.96,-8.531 -21.06,-11.074 -8.13,-2.539 -16.9,-3.816 -26.33,-3.816" /><path
         id="path30"
         style="fill:#51ade5;fill-opacity:1;fill-rule:nonzero;stroke:none"
         d="m 2490.66,1012.3 h 29.06 l 92.61,-138.745 92.62,138.745 h 29.06 V 758.066 h -28.7 v 205.926 l -92.6,-136.187 h -1.47 l -92.61,135.82 V 758.066 h -27.97 V 1012.3" /><path
         id="path32"
         style="fill:#51ade5;fill-opacity:1;fill-rule:nonzero;stroke:none"
         d="m 2873.11,778.762 c 10.17,0 19.49,1.926 27.96,5.816 8.47,3.883 15.73,9.082 21.8,15.621 6.06,6.531 10.76,14.16 14.16,22.883 3.37,8.719 5.09,18.027 5.09,27.957 v 0.731 c 0,10.168 -1.76,19.66 -5.28,28.507 -3.52,8.832 -8.41,16.582 -14.69,23.243 -6.31,6.66 -13.69,11.918 -22.17,15.8 -8.49,3.868 -17.68,5.813 -27.6,5.813 -10.17,0 -19.5,-1.945 -27.97,-5.813 -8.47,-3.882 -15.68,-9.09 -21.61,-15.609 -5.94,-6.543 -10.59,-14.231 -13.97,-23.07 -3.4,-8.84 -5.1,-18.219 -5.1,-28.141 v -0.73 c 0,-10.176 1.76,-19.68 5.28,-28.516 3.49,-8.844 8.34,-16.524 14.52,-23.055 6.18,-6.539 13.5,-11.738 21.98,-15.621 8.46,-3.89 17.66,-5.816 27.6,-5.816 m -0.73,-25.063 c -14.06,0 -27,2.61 -38.86,7.809 -11.88,5.203 -22.15,12.23 -30.87,21.07 -8.72,8.844 -15.49,19.133 -20.35,30.875 -4.84,11.746 -7.26,24.266 -7.26,37.586 v 0.731 c 0,13.32 2.42,25.902 7.26,37.781 4.86,11.859 11.63,22.269 20.35,31.219 8.72,8.96 19.06,16.05 31.05,21.25 11.98,5.21 25.12,7.808 39.41,7.808 14.04,0 27.06,-2.598 39.03,-7.808 11.99,-5.2 22.35,-12.231 31.07,-21.067 8.7,-8.844 15.49,-19.121 20.33,-30.863 4.84,-11.75 7.27,-24.277 7.27,-37.59 v -0.73 c 0,-13.317 -2.5,-25.911 -7.47,-37.79 -4.94,-11.863 -11.8,-22.269 -20.5,-31.21 -8.71,-8.969 -19.13,-16.059 -31.23,-21.262 -12.13,-5.199 -25.19,-7.809 -39.23,-7.809" /><path
         id="path34"
         style="fill:#51ade5;fill-opacity:1;fill-rule:nonzero;stroke:none"
         d="m 3006.76,945.836 h 27.96 v -49.02 c 3.4,7.739 7.62,14.887 12.71,21.407 5.1,6.55 10.9,12.183 17.45,16.894 6.53,4.727 13.66,8.297 21.41,10.719 7.76,2.41 16.11,3.512 25.07,3.269 v -30.152 h -2.17 c -10.18,0 -19.81,-1.82 -28.89,-5.445 -9.07,-3.625 -17.01,-9.082 -23.78,-16.336 -6.77,-7.266 -12.12,-16.289 -15.97,-27.055 -3.9,-10.781 -5.83,-23.183 -5.83,-37.222 v -74.829 h -27.96 v 187.77" /><path
         id="path36"
         style="fill:#51ade5;fill-opacity:1;fill-rule:nonzero;stroke:none"
         d="m 3200.92,776.949 c 8.67,0 16.77,1.211 24.25,3.61 7.48,2.41 14.05,5.859 19.73,10.308 5.68,4.461 10.13,9.774 13.4,15.91 3.24,6.145 4.87,12.95 4.87,20.411 v 17.359 c -6.99,1.922 -14.97,3.719 -23.87,5.41 -8.93,1.691 -19.19,2.543 -30.77,2.543 -17.39,0 -30.83,-3.453 -40.39,-10.312 -9.53,-6.872 -14.28,-15.973 -14.28,-27.29 v -0.726 c 0,-5.774 1.27,-11.012 3.8,-15.727 2.53,-4.683 5.97,-8.597 10.32,-11.726 4.33,-3.141 9.32,-5.543 15.02,-7.25 5.66,-1.68 11.63,-2.52 17.92,-2.52 m -5.67,-22.89 c -8.71,0 -17.29,1.218 -25.78,3.64 -8.47,2.406 -15.97,6.117 -22.52,11.078 -6.53,4.961 -11.8,11.071 -15.8,18.34 -3.99,7.274 -5.99,15.738 -5.99,25.434 v 0.726 c 0,10.161 1.94,19.063 5.82,26.68 3.87,7.641 9.37,13.992 16.52,19.07 7.15,5.078 15.63,8.953 25.42,11.633 9.81,2.645 20.64,3.988 32.52,3.988 12.1,0 22.55,-0.73 31.41,-2.168 8.82,-1.449 17.49,-3.394 25.98,-5.808 v 5.766 c 0,16.589 -4.85,29.16 -14.55,37.699 -9.68,8.531 -23.37,12.824 -41.04,12.824 -11.15,0 -21.23,-1.223 -30.33,-3.645 -9.07,-2.418 -17.96,-5.687 -26.69,-9.808 l -8.35,23.019 c 10.41,4.911 20.94,8.84 31.6,11.789 10.66,2.95 22.88,4.434 36.68,4.434 26.64,0 46.85,-6.914 60.66,-20.715 13.08,-13.07 19.62,-31.476 19.62,-55.207 V 758.066 h -27.6 v 27.973 c -6.55,-8.488 -15.33,-15.934 -26.35,-22.344 -11,-6.414 -24.75,-9.636 -41.23,-9.636" /><path
         id="path38"
         style="fill:#51ade5;fill-opacity:1;fill-rule:nonzero;stroke:none"
         d="m 3337.65,945.828 h 27.96 V 758.063 h -27.96 z m -1.84,71.922 h 31.96 v -30.871 h -31.96 v 30.871" /><path
         id="path40"
         style="fill:#51ade5;fill-opacity:1;fill-rule:nonzero;stroke:none"
         d="m 3416.07,945.836 h 27.98 v -32.684 c 6.28,10.172 14.5,18.821 24.69,25.973 10.17,7.129 23.36,10.699 39.6,10.699 11.36,0 21.48,-1.812 30.33,-5.449 8.83,-3.629 16.34,-8.77 22.51,-15.43 6.17,-6.648 10.89,-14.59 14.17,-23.777 3.25,-9.199 4.89,-19.383 4.89,-30.523 V 758.066 h -27.95 v 109.45 c 0,17.39 -4.51,31.16 -13.46,41.297 -8.95,10.152 -21.77,15.23 -38.48,15.23 -8.01,0 -15.43,-1.387 -22.33,-4.168 -6.91,-2.789 -12.89,-6.77 -18,-11.961 -5.09,-5.199 -9.01,-11.41 -11.8,-18.652 -2.78,-7.254 -4.17,-15.231 -4.17,-23.934 V 758.066 h -27.98 v 187.77" /><path
         id="path42"
         style="fill:#51ade5;fill-opacity:1;fill-rule:nonzero;stroke:none"
         d="m 3762.92,863.383 c -0.7,8.433 -2.52,16.441 -5.43,24.027 -2.91,7.567 -6.85,14.254 -11.8,20.035 -4.97,5.778 -11.02,10.36 -18.18,13.707 -7.12,3.395 -15.31,5.075 -24.5,5.075 -7.99,0 -15.5,-1.575 -22.53,-4.696 -7,-3.129 -13.19,-7.515 -18.51,-13.187 -5.33,-5.649 -9.76,-12.336 -13.24,-20.039 -3.52,-7.707 -5.79,-16.02 -6.73,-24.922 z M 3642,840.504 c 0.94,-9.93 3.38,-18.77 7.25,-26.52 3.88,-7.738 8.85,-14.273 14.88,-19.597 6.06,-5.344 12.85,-9.391 20.35,-12.184 7.5,-2.769 15.37,-4.172 23.6,-4.172 13.09,0 24.27,2.434 33.61,7.274 9.32,4.828 17.86,11.25 25.59,19.25 l 17.45,-15.617 c -9.48,-10.653 -20.24,-19.18 -32.34,-25.602 -12.12,-6.41 -27.1,-9.629 -45.03,-9.629 -12.85,0 -24.94,2.367 -36.3,7.078 -11.39,4.727 -21.33,11.387 -29.8,19.977 -8.48,8.601 -15.19,18.949 -20.16,31.054 -4.97,12.102 -7.45,25.418 -7.45,39.946 0,13.551 2.24,26.343 6.74,38.332 4.47,11.972 10.69,22.383 18.7,31.23 8,8.832 17.49,15.801 28.51,20.879 10.99,5.094 23.07,7.633 36.12,7.633 13.83,0 26.17,-2.602 37.04,-7.809 10.91,-5.211 20.11,-12.304 27.62,-21.265 7.5,-8.946 13.21,-19.469 17.09,-31.586 3.86,-12.102 5.78,-25.059 5.78,-38.863 v -4.18 c 0,-1.567 -0.1,-3.438 -0.35,-5.629 H 3642" /><path
         id="path44"
         style="fill:#51ade5;fill-opacity:1;fill-rule:nonzero;stroke:none"
         d="m 2150.87,632.852 c -6.27,0 -11.98,1.066 -17.12,3.171 -5.13,2.102 -9.51,5 -13.15,8.735 -3.65,3.719 -6.47,8.086 -8.45,13.094 -1.99,5.019 -3,10.476 -3,16.378 v 0.235 c 0,5.586 1.04,10.918 3.08,15.965 2.05,5.066 4.91,9.492 8.62,13.281 3.69,3.777 8.1,6.812 13.19,9.023 5.1,2.227 10.67,3.34 16.72,3.34 3.53,0 6.73,-0.254 9.59,-0.742 2.87,-0.508 5.53,-1.223 7.99,-2.141 2.45,-0.91 4.78,-2.046 6.96,-3.39 2.19,-1.34 4.3,-2.887 6.37,-4.66 l -8.96,-10.688 c -1.53,1.309 -3.11,2.5 -4.71,3.574 -1.61,1.067 -3.29,1.985 -5.05,2.696 -1.77,0.73 -3.71,1.308 -5.81,1.718 -2.11,0.43 -4.43,0.645 -6.94,0.645 -3.69,0 -7.12,-0.773 -10.3,-2.316 -3.18,-1.524 -5.94,-3.582 -8.27,-6.153 -2.34,-2.574 -4.19,-5.586 -5.52,-9.043 -1.34,-3.457 -2.01,-7.097 -2.01,-10.945 v -0.215 c 0,-4.148 0.65,-7.988 1.94,-11.531 1.31,-3.528 3.16,-6.567 5.56,-9.094 2.41,-2.527 5.28,-4.531 8.61,-5.984 3.33,-1.465 7.06,-2.192 11.18,-2.192 3.82,0 7.39,0.559 10.71,1.672 3.33,1.121 6.22,2.61 8.66,4.453 v 15.137 h -20.56 v 12.297 h 34.24 v -33.789 c -1.99,-1.684 -4.19,-3.293 -6.62,-4.817 -2.4,-1.543 -5.01,-2.878 -7.8,-4.035 -2.8,-1.14 -5.81,-2.058 -9.03,-2.703 -3.22,-0.652 -6.6,-0.976 -10.12,-0.976" /><path
         id="path46"
         style="fill:#51ade5;fill-opacity:1;fill-rule:nonzero;stroke:none"
         d="m 2237.6,674.813 c 5.07,0 9.11,1.203 12.11,3.625 2.99,2.414 4.48,5.71 4.48,9.882 v 0.227 c 0,4.383 -1.46,7.703 -4.37,9.976 -2.93,2.27 -7.04,3.411 -12.34,3.411 h -20.63 v -27.121 z m -34.78,39.871 h 35.86 c 5.06,0 9.54,-0.7 13.45,-2.129 3.91,-1.41 7.18,-3.371 9.77,-5.91 2.13,-2.231 3.79,-4.797 4.94,-7.692 1.15,-2.93 1.71,-6.14 1.71,-9.656 v -0.234 c 0,-3.293 -0.46,-6.27 -1.43,-8.918 -0.95,-2.633 -2.28,-4.969 -3.96,-7 -1.69,-2.04 -3.69,-3.75 -6.04,-5.196 -2.33,-1.394 -4.91,-2.5 -7.74,-3.254 l 21.71,-30.457 h -16.67 l -19.83,28.035 h -17.74 v -28.035 h -14.03 v 80.446" /><path
         id="path48"
         style="fill:#51ade5;fill-opacity:1;fill-rule:nonzero;stroke:none"
         d="m 2324.54,645.852 c 3.96,0 7.62,0.73 10.93,2.234 3.31,1.504 6.15,3.523 8.51,6.094 2.38,2.558 4.21,5.566 5.55,9.011 1.34,3.45 2.01,7.141 2.01,11.039 v 0.235 c 0,3.902 -0.67,7.605 -2.01,11.07 -1.34,3.496 -3.19,6.516 -5.6,9.094 -2.41,2.578 -5.29,4.617 -8.64,6.141 -3.36,1.543 -7.01,2.316 -10.98,2.316 -3.98,0 -7.61,-0.762 -10.93,-2.246 -3.32,-1.492 -6.16,-3.527 -8.53,-6.094 -2.37,-2.566 -4.22,-5.566 -5.54,-9.023 -1.35,-3.45 -2.02,-7.118 -2.02,-11.035 v -0.223 c 0,-3.93 0.67,-7.61 2.02,-11.098 1.32,-3.496 3.2,-6.512 5.6,-9.07 2.4,-2.567 5.28,-4.617 8.63,-6.16 3.36,-1.516 7.03,-2.285 11,-2.285 m -0.23,-13 c -6.21,0 -11.89,1.093 -17.02,3.281 -5.12,2.187 -9.54,5.137 -13.21,8.906 -3.68,3.75 -6.56,8.137 -8.62,13.152 -2.07,5.032 -3.1,10.372 -3.1,16.039 v 0.235 c 0,5.664 1.03,11.004 3.1,16.023 2.06,5.02 4.99,9.434 8.74,13.223 3.75,3.789 8.19,6.809 13.33,9.019 5.13,2.243 10.79,3.34 17.01,3.34 6.2,0 11.87,-1.09 17,-3.281 5.13,-2.168 9.54,-5.156 13.21,-8.91 3.7,-3.75 6.57,-8.137 8.63,-13.156 2.07,-5.02 3.1,-10.352 3.1,-16.035 v -0.223 c 0,-5.676 -1.03,-11.02 -3.1,-16.035 -2.06,-5.024 -4.97,-9.438 -8.74,-13.203 -3.75,-3.809 -8.18,-6.821 -13.32,-9.036 -5.15,-2.214 -10.8,-3.339 -17.01,-3.339" /><path
         id="path50"
         style="fill:#51ade5;fill-opacity:1;fill-rule:nonzero;stroke:none"
         d="m 2416.6,632.969 c -5.2,0 -9.92,0.742 -14.14,2.246 -4.22,1.484 -7.81,3.738 -10.81,6.726 -2.98,2.981 -5.29,6.68 -6.88,11.086 -1.63,4.407 -2.43,9.524 -2.43,15.34 v 46.321 h 14.02 v -45.75 c 0,-7.512 1.82,-13.208 5.45,-17.114 3.61,-3.914 8.61,-5.855 15.01,-5.855 6.31,0 11.3,1.875 14.92,5.625 3.61,3.75 5.42,9.344 5.42,16.773 v 46.321 h 14.03 v -45.625 c 0,-5.977 -0.83,-11.231 -2.47,-15.75 -1.66,-4.524 -3.96,-8.293 -6.96,-11.333 -2.99,-3.003 -6.61,-5.281 -10.85,-6.765 -4.26,-1.504 -9.03,-2.246 -14.31,-2.246" /><path
         id="path52"
         style="fill:#51ade5;fill-opacity:1;fill-rule:nonzero;stroke:none"
         d="m 2470.63,714.688 h 13.06 l 43.01,-55.618 v 55.618 h 14.01 v -80.45 h -11.8 l -44.28,57.239 v -57.239 h -14 v 80.45" /><path
         id="path54"
         style="fill:#51ade5;fill-opacity:1;fill-rule:nonzero;stroke:none"
         d="m 2591.29,647.004 c 4.2,0 8.04,0.652 11.48,2 3.44,1.348 6.39,3.242 8.8,5.664 2.41,2.434 4.3,5.312 5.64,8.66 1.33,3.352 2.01,6.985 2.01,10.902 v 0.235 c 0,3.914 -0.68,7.578 -2.01,10.957 -1.34,3.379 -3.23,6.297 -5.64,8.719 -2.41,2.429 -5.36,4.328 -8.8,5.714 -3.44,1.383 -7.28,2.079 -11.48,2.079 h -15.86 v -54.93 z m -29.89,67.687 h 30.01 c 6.28,0 12.04,-1.019 17.29,-3.05 5.25,-2.028 9.77,-4.848 13.56,-8.45 3.79,-3.613 6.72,-7.832 8.78,-12.703 2.08,-4.863 3.12,-10.117 3.12,-15.8 v -0.223 c 0,-5.676 -1.04,-10.949 -3.12,-15.871 -2.06,-4.903 -4.99,-9.153 -8.78,-12.742 -3.79,-3.618 -8.31,-6.45 -13.56,-8.516 -5.25,-2.063 -11.01,-3.098 -17.29,-3.098 h -30.01 v 80.453" /><path
         id="path56"
         style="fill:#51ade5;fill-opacity:1;fill-rule:nonzero;stroke:none"
         d="m 2645.08,714.688 h 15.28 l 19.19,-59.661 19.77,59.879 h 11.96 l 19.76,-59.879 19.19,59.661 h 14.84 l -28.05,-81.016 h -12.18 l -19.77,57.805 -19.77,-57.805 h -12.17 l -28.05,81.016" /><path
         id="path58"
         style="fill:#51ade5;fill-opacity:1;fill-rule:nonzero;stroke:none"
         d="m 2828.28,666.191 -13.9,32.168 -13.81,-32.168 z m -20.23,49.067 h 13.09 l 35.41,-81.02 h -14.94 l -8.16,19.422 h -38.04 l -8.29,-19.422 h -14.47 l 35.4,81.02" /><path
         id="path60"
         style="fill:#51ade5;fill-opacity:1;fill-rule:nonzero;stroke:none"
         d="m 2890.11,701.594 h -25.52 v 13.097 h 65.28 v -13.097 h -25.5 v -67.356 h -14.26 v 67.356" /><path
         id="path62"
         style="fill:#51ade5;fill-opacity:1;fill-rule:nonzero;stroke:none"
         d="m 2944.81,714.688 h 59.55 v -12.754 h -45.51 v -20.696 h 40.33 v -12.761 h -40.33 v -21.473 h 46.07 v -12.766 h -60.11 v 80.45" /><path
         id="path64"
         style="fill:#51ade5;fill-opacity:1;fill-rule:nonzero;stroke:none"
         d="m 3056.59,674.813 c 5.07,0 9.09,1.203 12.1,3.625 3,2.414 4.49,5.71 4.49,9.882 v 0.227 c 0,4.383 -1.45,7.703 -4.37,9.976 -2.93,2.27 -7.04,3.411 -12.34,3.411 h -20.63 v -27.121 z m -34.78,39.871 h 35.87 c 5.05,0 9.54,-0.7 13.45,-2.129 3.9,-1.41 7.16,-3.371 9.76,-5.91 2.16,-2.231 3.79,-4.797 4.95,-7.692 1.14,-2.93 1.71,-6.14 1.71,-9.656 v -0.234 c 0,-3.293 -0.47,-6.27 -1.44,-8.918 -0.94,-2.633 -2.27,-4.969 -3.96,-7 -1.69,-2.04 -3.69,-3.75 -6.04,-5.196 -2.32,-1.394 -4.92,-2.5 -7.75,-3.254 l 21.72,-30.457 h -16.67 l -19.83,28.035 h -17.74 v -28.035 h -14.03 v 80.446" /><path
         id="path66"
         style="fill:#51ade5;fill-opacity:1;fill-rule:nonzero;stroke:none"
         d="m 3169.9,672.852 c 5.37,0 9.62,1.347 12.75,4.043 3.11,2.683 4.66,6.152 4.66,10.371 v 0.254 c 0,4.753 -1.57,8.347 -4.72,10.781 -3.16,2.422 -7.38,3.633 -12.69,3.633 h -16.49 v -29.082 z m -30.51,41.839 h 31.73 c 4.68,0 8.9,-0.628 12.7,-1.898 3.78,-1.27 7.01,-3.082 9.64,-5.457 2.63,-2.387 4.67,-5.219 6.11,-8.508 1.41,-3.281 2.11,-6.973 2.11,-11.035 v -0.234 c 0,-4.512 -0.84,-8.489 -2.53,-11.895 -1.7,-3.406 -4,-6.262 -6.91,-8.562 -2.93,-2.305 -6.34,-4.036 -10.27,-5.227 -3.91,-1.184 -8.1,-1.777 -12.54,-1.777 h -16.02 v -25.86 h -14.02 v 80.453" /><path
         id="path68"
         style="fill:#51ade5;fill-opacity:1;fill-rule:nonzero;stroke:none"
         d="m 3250.94,674.813 c 5.08,0 9.1,1.203 12.1,3.625 3,2.414 4.5,5.71 4.5,9.882 v 0.227 c 0,4.383 -1.46,7.703 -4.39,9.976 -2.91,2.27 -7.02,3.411 -12.33,3.411 h -20.63 v -27.121 z m -34.8,39.871 h 35.89 c 5.05,0 9.52,-0.7 13.44,-2.129 3.91,-1.41 7.17,-3.371 9.75,-5.91 2.17,-2.231 3.82,-4.797 4.97,-7.692 1.14,-2.93 1.71,-6.14 1.71,-9.656 v -0.234 c 0,-3.293 -0.48,-6.27 -1.43,-8.918 -0.96,-2.633 -2.3,-4.969 -3.97,-7 -1.67,-2.04 -3.7,-3.75 -6.04,-5.196 -2.33,-1.394 -4.9,-2.5 -7.75,-3.254 l 21.71,-30.457 h -16.66 l -19.81,28.035 h -17.76 v -28.035 h -14.05 v 80.446" /><path
         id="path70"
         style="fill:#51ade5;fill-opacity:1;fill-rule:nonzero;stroke:none"
         d="m 3337.88,645.852 c 3.98,0 7.59,0.73 10.93,2.234 3.31,1.504 6.15,3.523 8.52,6.094 2.37,2.558 4.21,5.566 5.54,9.011 1.35,3.45 2.01,7.141 2.01,11.039 v 0.235 c 0,3.902 -0.66,7.605 -2.01,11.07 -1.33,3.496 -3.21,6.516 -5.6,9.094 -2.41,2.578 -5.29,4.617 -8.63,6.141 -3.37,1.543 -7.02,2.316 -10.98,2.316 -3.99,0 -7.63,-0.762 -10.96,-2.246 -3.29,-1.492 -6.14,-3.527 -8.51,-6.094 -2.38,-2.566 -4.22,-5.566 -5.55,-9.023 -1.33,-3.45 -2.01,-7.118 -2.01,-11.035 v -0.223 c 0,-3.93 0.68,-7.61 2.01,-11.098 1.33,-3.496 3.21,-6.512 5.62,-9.07 2.38,-2.567 5.28,-4.617 8.62,-6.16 3.37,-1.516 7.03,-2.285 11,-2.285 m -0.22,-13 c -6.22,0 -11.9,1.093 -17.03,3.281 -5.12,2.187 -9.53,5.137 -13.2,8.906 -3.68,3.75 -6.57,8.137 -8.63,13.152 -2.06,5.032 -3.12,10.372 -3.12,16.039 v 0.235 c 0,5.664 1.06,11.004 3.12,16.023 2.06,5.02 4.98,9.434 8.73,13.223 3.76,3.789 8.21,6.809 13.35,9.019 5.12,2.243 10.79,3.34 17,3.34 6.19,0 11.87,-1.09 17.02,-3.281 5.13,-2.168 9.51,-5.156 13.22,-8.91 3.66,-3.75 6.54,-8.137 8.6,-13.156 2.07,-5.02 3.11,-10.352 3.11,-16.035 v -0.223 c 0,-5.676 -1.04,-11.02 -3.11,-16.035 -2.06,-5.024 -4.98,-9.438 -8.73,-13.203 -3.75,-3.809 -8.2,-6.821 -13.32,-9.036 -5.13,-2.214 -10.82,-3.339 -17.01,-3.339" /><path
         id="path72"
         style="fill:#51ade5;fill-opacity:1;fill-rule:nonzero;stroke:none"
         d="m 3435.11,632.852 c -6.27,0 -11.99,1.066 -17.11,3.171 -5.16,2.102 -9.52,5 -13.18,8.735 -3.65,3.719 -6.46,8.086 -8.46,13.094 -1.98,5.019 -2.97,10.476 -2.97,16.378 v 0.235 c 0,5.586 1.01,10.918 3.07,15.965 2.04,5.066 4.92,9.492 8.61,13.281 3.71,3.777 8.09,6.812 13.2,9.023 5.1,2.227 10.67,3.34 16.73,3.34 3.53,0 6.72,-0.254 9.6,-0.742 2.86,-0.508 5.52,-1.223 8,-2.141 2.44,-0.91 4.76,-2.046 6.93,-3.39 2.19,-1.34 4.33,-2.887 6.38,-4.66 l -8.97,-10.688 c -1.52,1.309 -3.11,2.5 -4.7,3.574 -1.61,1.067 -3.3,1.985 -5.06,2.696 -1.77,0.73 -3.7,1.308 -5.81,1.718 -2.09,0.43 -4.43,0.645 -6.96,0.645 -3.65,0 -7.1,-0.773 -10.26,-2.316 -3.19,-1.524 -5.96,-3.582 -8.29,-6.153 -2.32,-2.574 -4.18,-5.586 -5.52,-9.043 -1.35,-3.457 -2.02,-7.097 -2.02,-10.945 v -0.215 c 0,-4.148 0.66,-7.988 1.95,-11.531 1.32,-3.528 3.16,-6.567 5.58,-9.094 2.39,-2.527 5.26,-4.531 8.57,-5.984 3.35,-1.465 7.06,-2.192 11.2,-2.192 3.83,0 7.41,0.559 10.72,1.672 3.32,1.121 6.19,2.61 8.64,4.453 v 15.137 h -20.57 v 12.297 h 34.26 v -33.789 c -1.99,-1.684 -4.19,-3.293 -6.6,-4.817 -2.42,-1.543 -5.03,-2.878 -7.83,-4.035 -2.78,-1.14 -5.8,-2.058 -9.02,-2.703 -3.21,-0.652 -6.6,-0.976 -10.11,-0.976" /><path
         id="path74"
         style="fill:#51ade5;fill-opacity:1;fill-rule:nonzero;stroke:none"
         d="m 3521.84,674.813 c 5.05,0 9.1,1.203 12.12,3.625 2.99,2.414 4.48,5.71 4.48,9.882 v 0.227 c 0,4.383 -1.48,7.703 -4.4,9.976 -2.9,2.27 -7.03,3.411 -12.33,3.411 h -20.64 v -27.121 z m -34.79,39.871 h 35.88 c 5.03,0 9.53,-0.7 13.45,-2.129 3.87,-1.41 7.16,-3.371 9.75,-5.91 2.15,-2.231 3.79,-4.797 4.94,-7.692 1.16,-2.93 1.72,-6.14 1.72,-9.656 v -0.234 c 0,-3.293 -0.46,-6.27 -1.43,-8.918 -0.95,-2.633 -2.28,-4.969 -3.98,-7 -1.67,-2.04 -3.67,-3.75 -6.02,-5.196 -2.34,-1.394 -4.93,-2.5 -7.76,-3.254 l 21.72,-30.457 h -16.65 l -19.84,28.035 h -17.76 v -28.035 h -14.02 v 80.446" /><path
         id="path76"
         style="fill:#51ade5;fill-opacity:1;fill-rule:nonzero;stroke:none"
         d="m 3618.89,666.191 -13.92,32.168 -13.79,-32.168 z m -20.25,49.067 h 13.12 l 35.42,-81.02 h -14.96 l -8.18,19.422 H 3586 l -8.26,-19.422 h -14.47 l 35.37,81.02" /><path
         id="path78"
         style="fill:#51ade5;fill-opacity:1;fill-rule:nonzero;stroke:none"
         d="m 3660.94,714.688 h 15.07 l 24.48,-38.04 24.45,38.04 h 15.07 v -80.45 h -14.02 v 57.688 l -25.4,-37.934 h -0.45 l -25.17,37.707 v -57.461 h -14.03 v 80.45" /><path
         id="path80"
         style="fill:#51ade5;fill-opacity:1;fill-rule:nonzero;stroke:none"
         d="m 683.793,792.75 c 5.859,-6.184 12.359,-11.672 19.422,-16.539 8.851,6.879 19.328,11.848 30.777,14.457 -10.476,5.324 -19.769,12.082 -27.687,20.422 -8.961,9.437 -15.918,20.519 -20.871,33.242 -4.969,12.699 -7.45,26.328 -7.45,40.859 v 0.715 c 0,14.532 2.481,28.094 7.45,40.672 4.953,12.594 11.8,23.621 20.519,33.051 8.711,9.449 19.188,16.891 31.41,22.359 12.231,5.418 25.602,8.164 40.133,8.164 14.531,0 27.91,-2.804 40.125,-8.355 12.234,-5.574 22.832,-13.074 31.793,-22.527 8.961,-9.442 15.918,-20.508 20.879,-33.231 4.961,-12.699 7.461,-26.332 7.461,-40.848 v -0.742 c 0,-14.523 -2.5,-28.101 -7.461,-40.672 -2.102,-5.32 -4.602,-10.285 -7.359,-15.039 10.05,-0.949 19.668,-3.699 28.398,-8.011 2.473,4.609 4.773,9.339 6.742,14.332 6.301,15.98 9.449,32.691 9.449,50.132 0.243,0.231 0.243,0.477 0,0.715 0,17.434 -3.089,34.082 -9.261,49.934 -6.176,15.871 -14.957,29.801 -26.328,41.765 -11.383,11.997 -25.008,21.493 -40.86,28.525 -15.871,7.02 -33.48,10.54 -52.851,10.54 -19.379,0 -37.039,-3.58 -53.02,-10.72 -15.988,-7.149 -29.672,-16.731 -41.039,-28.688 -11.398,-11.992 -20.226,-25.973 -26.523,-41.953 -6.297,-15.989 -9.438,-32.704 -9.438,-50.118 v -0.742 c 0,-17.429 3.09,-34.066 9.262,-49.929 6.168,-15.864 14.937,-29.793 26.328,-41.77" /><path
         id="path82"
         style="fill:#51ade5;fill-opacity:1;fill-rule:evenodd;stroke:none"
         d="m 504.402,793.137 c 0,-8.332 -6.734,-15.078 -15.066,-15.078 -8.313,0 -15.063,6.746 -15.063,15.078 0,8.308 15.063,38.25 15.063,38.25 0,0 15.066,-29.942 15.066,-38.25" /><path
         id="path84"
         style="fill:#51ade5;fill-opacity:1;fill-rule:evenodd;stroke:none"
         d="m 566.488,863.629 c 0,-12.441 -10.078,-22.52 -22.508,-22.52 -12.441,0 -22.5,10.079 -22.5,22.52 0,12.441 22.5,45.707 22.5,45.707 0,0 22.508,-33.266 22.508,-45.707" /><path
         id="path86"
         style="fill:#51ade5;fill-opacity:1;fill-rule:evenodd;stroke:none"
         d="m 533.766,961.598 c 0,-17.387 -14.114,-31.493 -31.5,-31.493 -17.411,0 -31.5,14.106 -31.5,31.493 0,17.402 31.5,60.512 31.5,60.512 0,0 31.5,-43.11 31.5,-60.512" /><path
         id="path88"
         style="fill:#3f7b4d;fill-opacity:1;fill-rule:nonzero;stroke:none"
         d="m 671.871,620.266 c 9.84,-1.868 20.602,-2.817 31.957,-2.817 33.301,0 69.895,7.895 106.555,19.25 -85.813,21.848 -78.203,51.66 12.387,74.672 94.843,24.102 6.39,52.223 -46.211,65.254 -4.411,-0.672 -8.907,-0.77 -13.411,-0.082 -7.988,1.238 -16.218,1.059 -24.16,-0.535 -10.535,-2.164 -20.57,-6.754 -28.797,-13.914 l -53.75,-46.801 -6.363,-5.52 -56.824,-49.492 c 15.84,-18.711 40.656,-32.886 78.617,-40.015" /><g
         id="g90"><g
           clip-path="url(#clipPath96)"
           id="g92"><g
             clip-path="url(#clipPath102)"
             id="g98"><path
               id="path110"
               style="fill:url(#linearGradient108);fill-opacity:1;fill-rule:nonzero;stroke:none"
               d="m 809,636 v 1 h -4 v 1 h -3 v 1 h -4 v 1 h -3 v 1 h -3 v 1 h -3 v 1 h -3 v 1 h -3 v 1 h -3 v 1 h -2 v 1 h -2 v 1 h -3 v 1 h -2 v 1 h -2 v 1 h -2 v 1 h -2 v 1 h -1 v 1 h -2 v 1 h -1 v 1 h -2 v 1 h -1 v 1 h -1 v 1 h -1 v 1 h -1 v 1 h -1 v 1 h -1 v 1 h -1 v 2 h -1 v 2 h -1 v 9 h 1 v 2 h 1 v 2 h 1 v 1 h 1 v 1 h 1 v 1 h 1 v 1 h 1 v 1 h 1 v 1 h 1 v 1 h 1 v 1 h 2 v 1 h 1 v 1 h 2 v 1 h 2 v 1 h 1 v 1 h 2 v 1 h 2 v 1 h 2 v 1 h 2 v 1 h 2 v 1 h 3 v 1 h 2 v 1 h 3 v 1 h 2 v 1 h 3 v 1 h 3 v 1 h 3 v 1 h 3 v 1 h 3 v 1 h 3 v 1 h 4 v 1 h 4 v 1 h 3 v 1 h 4 v 1 h 3 v 1 h 4 v 1 h 3 v 1 h 4 v 1 h 3 v 1 h 3 v 1 h 2 v 1 h 3 v 1 h 2 v 1 h 2 v 1 h 2 v 1 h 2 v 1 h 2 v 1 h 1 v 1 h 2 v 1 h 1 v 1 h 1 v 1 h 1 v 2 h 1 v 2 h 1 v 4 h -1 v 3 h -1 v 1 h -1 v 1 h -1 v 2 h -2 v 1 h -1 v 1 h -1 v 1 h -1 v 1 h -2 v 1 h -2 v 1 h -1 v 1 h -2 v 1 h -2 v 1 h -2 v 1 h -2 v 1 h -2 v 1 h -2 v 1 h -3 v 1 h -2 v 1 h -2 v 1 h -3 v 1 h -3 v 1 h -3 v 1 h -2 v 1 h -3 v 1 h -3 v 1 h -3 v 1 h -4 v 1 h -3 v 1 h -3 v 1 h -4 v 1 h -3 v 1 h -4 v 1 h -4 v 1 h -4 v 1 h -3 v 1 h -3 v 1 h 2 v 1 h 4 v 1 h 3 v 1 h 2 v 1 h 1 v 1 h 2 v 1 h 2 v 1 h 2 v 1 h 1 v 1 h 2 v 1 h 2 v 1 h 1 v 1 h 1 v 1 h 1 v 1 h 1 v 1 h 2 v 1 h 1 v 1 h 1 v 1 h 1 v 1 h 1 v 1 h 1 v 1 h 1 v 1 h 2 v 1 h 1 v 1 h 1 v 1 h 2 v 1 h 1 v 1 h 2 v 1 h 2 v 1 h 2 v 1 h 2 v 1 h 1 v 1 h 3 v 1 h 3 v 1 h 4 v 1 h 3 v 1 h 8 v 1 h 15 v -1 h 7 v -1 h 3 v -1 h 4 v -1 h 3 v -1 h 2 v -1 h 2 v -1 h 2 v -1 h 2 v -1 h 2 v -1 h 1 v -1 h 2 v -1 h 1 v -1 h 2 v -1 h 1 v -1 h 1 v -1 h 1 v -1 h 2 v -1 h 1 v -1 h 1 v -1 h 1 v -1 h 1 v -1 h 1 v -1 h 1 v -1 h 2 v -1 h 1 v -1 h 1 v -1 h 1 v -1 h 1 v -1 h 1 v -1 h 1 v -1 h 2 v -1 h 1 v -1 h 1 v -1 h 1 v -1 h 1 v -1 h 1 v -1 h 2 v -1 h 1 v -1 h 1 v -1 h 1 v -1 h 1 v -1 h 1 v -1 h 1 v -1 h 2 v -1 h 1 v -1 h 1 v -1 h 1 v -1 h 1 v -1 h 1 v -1 h 1 v -1 h 2 v -1 h 1 v -1 h 1 v -1 h 1 v -1 h 1 v -1 h 1 v -1 h 1 v -1 h 2 v -1 h 1 v -1 h 1 v -1 h 1 v -1 h 1 v -1 h 1 v -1 h 2 v -1 h 1 v -1 h 1 v -1 h 1 v -1 h 1 v -1 h 1 v -1 h 1 v -1 h 2 v -1 h 1 v -1 h 1 v -1 h 1 v -1 h 1 v -1 h 1 v -1 h 1 v -1 h 2 v -1 h 1 v -1 h 1 v -1 h 1 v -1 h 1 v -1 h 1 v -1 h 2 v -1 h 1 v -1 h 1 v -1 h 1 v -1 h 1 v -1 h 1 v -1 h 1 v -1 h 2 v -1 h 1 v -1 h 1 v -1 h 1 v -1 h 1 v -1 h 1 v -1 h 1 v -1 h 2 v -1 h 1 v -1 h 1 v -1 h 1 v -1 h 1 v -1 h 1 v -2 h -2 v -1 h -3 v -1 h -3 v -1 h -2 v -1 h -3 v -1 h -2 v -1 h -3 v -1 h -3 v -1 h -2 v -1 h -3 v -1 h -2 v -1 h -3 v -1 h -2 v -1 h -2 v -1 h -3 v -1 h -2 v -1 h -3 v -1 h -2 v -1 h -3 v -1 h -2 v -1 h -2 v -1 h -3 v -1 h -2 v -1 h -2 v -1 h -3 v -1 h -2 v -1 h -3 v -1 h -2 v -1 h -2 v -1 h -3 v -1 h -2 v -1 h -3 v -1 h -2 v -1 h -2 v -1 h -3 v -1 h -2 v -1 h -3 v -1 h -2 v -1 h -2 v -1 h -3 v -1 h -2 v -1 h -3 v -1 h -2 v -1 h -3 v -1 h -2 v -1 h -3 v -1 h -2 v -1 h -3 v -1 h -2 v -1 h -3 v -1 h -2 v -1 h -3 v -1 h -3 v -1 h -2 v -1 h -3 v -1 h -3 v -1 h -2 v -1 h -3 v -1 h -3 v -1 h -2 v -1 h -3 v -1 h -3 v -1 h -2 v -1 h -3 v -1 h -3 v -1 h -3 v -1 h -3 v -1 h -3 v -1 h -3 v -1 h -3 v -1 h -3 v -1 h -3 v -1 h -3 v -1" /><path
               id="path118"
               style="fill:url(#linearGradient116);fill-opacity:1;fill-rule:nonzero;stroke:none"
               d="m 809,636 v 1 h -4 v 1 h -3 v 1 h -4 v 1 h -3 v 1 h -3 v 1 h -3 v 1 h -3 v 1 h -3 v 1 h -3 v 1 h -2 v 1 h -2 v 1 h -3 v 1 h -2 v 1 h -2 v 1 h -2 v 1 h -2 v 1 h -1 v 1 h -2 v 1 h -1 v 1 h -2 v 1 h -1 v 1 h -1 v 1 h -1 v 1 h -1 v 1 h -1 v 1 h -1 v 1 h -1 v 2 h -1 v 2 h -1 v 9 h 1 v 2 h 1 v 2 h 1 v 1 h 1 v 1 h 1 v 1 h 1 v 1 h 1 v 1 h 1 v 1 h 1 v 1 h 1 v 1 h 2 v 1 h 1 v 1 h 2 v 1 h 2 v 1 h 1 v 1 h 2 v 1 h 2 v 1 h 2 v 1 h 2 v 1 h 2 v 1 h 3 v 1 h 2 v 1 h 3 v 1 h 2 v 1 h 3 v 1 h 3 v 1 h 3 v 1 h 3 v 1 h 3 v 1 h 3 v 1 h 4 v 1 h 4 v 1 h 3 v 1 h 4 v 1 h 3 v 1 h 4 v 1 h 3 v 1 h 4 v 1 h 3 v 1 h 3 v 1 h 2 v 1 h 3 v 1 h 2 v 1 h 2 v 1 h 2 v 1 h 2 v 1 h 2 v 1 h 1 v 1 h 2 v 1 h 1 v 1 h 1 v 1 h 1 v 2 h 1 v 2 h 1 v 4 h -1 v 3 h -1 v 1 h -1 v 1 h -1 v 2 h -2 v 1 h -1 v 1 h -1 v 1 h -1 v 1 h -2 v 1 h -2 v 1 h -1 v 1 h -2 v 1 h -2 v 1 h -2 v 1 h -2 v 1 h -2 v 1 h -2 v 1 h -3 v 1 h -2 v 1 h -2 v 1 h -3 v 1 h -3 v 1 h -3 v 1 h -2 v 1 h -3 v 1 h -3 v 1 h -3 v 1 h -4 v 1 h -3 v 1 h -3 v 1 h -4 v 1 h -3 v 1 h -4 v 1 h -4 v 1 h -4 v 1 h -3 v 1 h -3 v 1 h 2 v 1 h 4 v 1 h 3 v 1 h 2 v 1 h 1 v 1 h 2 v 1 h 2 v 1 h 2 v 1 h 1 v 1 h 2 v 1 h 2 v 1 h 1 v 1 h 1 v 1 h 1 v 1 h 1 v 1 h 2 v 1 h 1 v 1 h 1 v 1 h 1 v 1 h 1 v 1 h 1 v 1 h 1 v 1 h 2 v 1 h 1 v 1 h 1 v 1 h 2 v 1 h 1 v 1 h 2 v 1 h 2 v 1 h 2 v 1 h 2 v 1 h 1 v 1 h 3 v 1 h 3 v 1 h 4 v 1 h 3 v 1 h 8 v 1 h 15 v -1 h 7 v -1 h 3 v -1 h 4 v -1 h 3 v -1 h 2 v -1 h 2 v -1 h 2 v -1 h 2 v -1 h 2 v -1 h 1 v -1 h 2 v -1 h 1 v -1 h 2 v -1 h 1 v -1 h 1 v -1 h 1 v -1 h 2 v -1 h 1 v -1 h 1 v -1 h 1 v -1 h 1 v -1 h 1 v -1 h 1 v -1 h 2 v -1 h 1 v -1 h 1 v -1 h 1 v -1 h 1 v -1 h 1 v -1 h 1 v -1 h 2 v -1 h 1 v -1 h 1 v -1 h 1 v -1 h 1 v -1 h 1 v -1 h 2 v -1 h 1 v -1 h 1 v -1 h 1 v -1 h 1 v -1 h 1 v -1 h 1 v -1 h 2 v -1 h 1 v -1 h 1 v -1 h 1 v -1 h 1 v -1 h 1 v -1 h 1 v -1 h 2 v -1 h 1 v -1 h 1 v -1 h 1 v -1 h 1 v -1 h 1 v -1 h 1 v -1 h 2 v -1 h 1 v -1 h 1 v -1 h 1 v -1 h 1 v -1 h 1 v -1 h 2 v -1 h 1 v -1 h 1 v -1 h 1 v -1 h 1 v -1 h 1 v -1 h 1 v -1 h 2 v -1 h 1 v -1 h 1 v -1 h 1 v -1 h 1 v -1 h 1 v -1 h 1 v -1 h 2 v -1 h 1 v -1 h 1 v -1 h 1 v -1 h 1 v -1 h 1 v -1 h 2 v -1 h 1 v -1 h 1 v -1 h 1 v -1 h 1 v -1 h 1 v -1 h 1 v -1 h 2 v -1 h 1 v -1 h 1 v -1 h 1 v -1 h 1 v -1 h 1 v -1 h 1 v -1 h 2 v -1 h 1 v -1 h 1 v -1 h 1 v -1 h 1 v -1 h 1 v -2 h -2 v -1 h -3 v -1 h -3 v -1 h -2 v -1 h -3 v -1 h -2 v -1 h -3 v -1 h -3 v -1 h -2 v -1 h -3 v -1 h -2 v -1 h -3 v -1 h -2 v -1 h -2 v -1 h -3 v -1 h -2 v -1 h -3 v -1 h -2 v -1 h -3 v -1 h -2 v -1 h -2 v -1 h -3 v -1 h -2 v -1 h -2 v -1 h -3 v -1 h -2 v -1 h -3 v -1 h -2 v -1 h -2 v -1 h -3 v -1 h -2 v -1 h -3 v -1 h -2 v -1 h -2 v -1 h -3 v -1 h -2 v -1 h -3 v -1 h -2 v -1 h -2 v -1 h -3 v -1 h -2 v -1 h -3 v -1 h -2 v -1 h -3 v -1 h -2 v -1 h -3 v -1 h -2 v -1 h -3 v -1 h -2 v -1 h -3 v -1 h -2 v -1 h -3 v -1 h -3 v -1 h -2 v -1 h -3 v -1 h -3 v -1 h -2 v -1 h -3 v -1 h -3 v -1 h -2 v -1 h -3 v -1 h -3 v -1 h -2 v -1 h -3 v -1 h -3 v -1 h -3 v -1 h -3 v -1 h -3 v -1 h -3 v -1 h -3 v -1 h -3 v -1 h -3 v -1 h -3 v -1" /></g></g></g><path
         id="path120"
         style="fill:#3f7b4d;fill-opacity:1;fill-rule:nonzero;stroke:none"
         d="m 1294.17,699.578 c -85.15,48.735 -169.92,39.012 -281.94,2.649 -79.917,-25.95 -235.234,-113.594 -342.503,-93.399 -123.461,23.223 -116.543,122 -111.383,173.813 -31.418,-95.414 1.453,-172.414 100.051,-206.848 33.988,-11.855 70.761,-14.008 108.347,-10.52 35.504,12.2 70.492,26.875 102.024,40.137 28.89,12.156 53.851,22.637 74.703,29.414 66.491,21.582 115.921,31.199 160.281,31.199 43.82,0 83.87,-9.929 122.14,-30.085 10.82,-5.11 21.66,-11.434 32.56,-19.114 14.94,-9.746 28.84,-20.445 39.1,-32.293 16.35,-11.023 38.79,-9.804 53.82,4.317 49.46,46.679 -20.03,89.465 -57.2,110.73" /><path
         id="path122"
         style="fill:#51ade5;fill-opacity:1;fill-rule:evenodd;stroke:none"
         d="m 1229,621.121 c -85.15,48.734 -169.92,39.016 -281.949,2.641 C 867.141,597.813 711.809,510.168 604.543,530.383 481.09,553.594 487.996,652.371 493.168,704.18 c -31.43,-95.41 1.449,-172.41 100.051,-206.844 30.941,-10.805 64.179,-13.535 98.25,-11.313 36.301,12.344 72.14,27.383 104.371,40.93 28.89,12.141 53.848,22.637 74.687,29.402 66.504,21.594 115.942,31.223 160.303,31.223 33.45,0 64.69,-5.848 94.64,-17.519 33.21,-8.196 65.89,-25.965 99.64,-57.84 16.29,-17.278 43.68,-18.188 61.07,-1.821 49.47,46.672 -20.01,89.446 -57.18,110.723" /><path
         id="path124"
         style="fill:#f89b1d;fill-opacity:1;fill-rule:evenodd;stroke:none"
         d="m 1152.18,433.75 c -95.65,90.359 -182.742,67.766 -297.461,33.328 -100.602,-30.23 -230.442,-84.488 -334.422,-48.199 -98.598,34.434 -131.481,111.434 -100.059,206.844 -5.16,-51.805 -12.07,-150.594 111.367,-173.809 107.282,-20.195 262.614,67.441 342.512,93.391 112.031,36.367 196.813,46.082 281.953,-2.649 37.18,-21.269 106.65,-64.043 57.18,-110.73 -17.38,-16.356 -44.78,-15.446 -61.07,1.824" /></g></g></svg>